<?xml version="1.0" encoding="UTF-8"?>
<svg id="Layer_1" data-name="Layer 1" xmlns="http://www.w3.org/2000/svg" viewBox="0 0 1000 370.87">
  <path d="M847.07,43.64v100.85c1.95-1.15,2.43-3.78,3.6-5.64,8.59-13.74,22-20.6,38.41-17.6,42.88,7.83,44.32,86.34,42.44,119.34-1.5,26.29-8.75,75.64-39.58,83.27-21.42,5.3-37.71-7.29-45.11-26.6l-3.25,23.46h-43.98c6.32-9.32,9.25-19.97,10.02-31.18V85.81c-.8-8.36-5.83-15.17-9.5-22.42l46.96-19.75ZM867.45,151.12c-18.37,2.1-19.33,35.83-19.9,50.01-.85,20.93-.96,47.2,2.09,67.85,1.38,9.36,4.78,26.74,16.21,28.24,19.75,2.58,22.84-17.2,24.63-32.22,2.73-22.83,2.84-54.43.56-77.32-1.42-14.23-4.08-38.78-23.6-36.56Z"/>
  <path d="M421.8,320.73h-43.23c-.51-.32-.64-.69-.74-1.25-1.3-7.15-1.24-14.77-2.53-21.94-.11-.6-.28-1.18-.97-1.27-10.85,24.78-40.04,39.51-65.31,25.55-25.84-14.29-26.4-51.67-13.42-74.98,6.26-11.24,16.06-19.73,26.59-26.86,18.28-12.37,57.14-25.88,51.48-53.61-5.88-28.86-50.8-10.57-66.27-.11l-19.03,12.69,11.58-49.08c.25-.68.82-.83,1.4-1.1,2.54-1.15,7.5-2.29,10.39-3.1,34.38-9.55,96.97-12.32,100.08,36.53,2.36,37.18-1.68,76.86-.02,114.35.47,10.48,2.22,22.51,5.47,32.48,1.3,3.97,3.42,7.75,4.52,11.71ZM374.32,201.9c-2.92,3.48-4.92,7.83-7.58,11.64-15.75,22.49-41.71,34.67-38.88,66.49,1.46,16.36,15.49,28.39,30.94,17.95,11.35-7.67,14.92-25.56,15.55-38.39.93-18.95-.73-38.66-.03-57.68Z"/>
  <path d="M789.1,320.73h-43.23l-3.25-23.72-.99-.74c-10.75,24.93-40.49,39.67-65.63,25.36-25.51-14.51-26.04-51.57-13.1-74.8,7.31-13.14,19.31-22.24,31.79-30.15,18.16-11.51,55.51-25.76,45.32-53.85-8.64-23.84-50.56-6.44-65.01,3.23l-19.33,12.88,11.59-49.08c.57-1.14,9.84-3.65,11.79-4.2,33.88-9.43,96.98-12.29,100.08,36.03,2.36,36.81-1.52,76.21-.04,113.38.51,12.88,2.57,25.83,7.01,37.93.96,2.61,2.51,5.09,3.01,7.73ZM741.62,201.9c-1.93,1.17-2.44,3.77-3.59,5.64-15.35,25.07-45.82,39.43-42.87,72.48,1.3,14.63,13.02,26.92,28.17,19.67,13.34-6.39,17.67-26.19,18.32-39.61.94-19.11-.74-39-.03-58.18Z"/>
  <path d="M482.77,122.52c-4.24,8.66-3.78,14.07.24,22.48,6.6,13.8,14.38,27.15,21,40.93l1.34-1.16,24.64-48.27c.77-3.14.03-6.36-1.32-9.18-.84-1.76-2.36-3.01-2.94-4.8h44.98l-50.44,94.61,51.94,103.6h-54.97c2.91-6.41,5.46-12.95,3.36-20.08l-24.34-47.82-27.15,53.51c-1.47,6.06,1.11,9.6,4.16,14.39h-44.98l52.44-98.6-49.94-99.6h51.97Z"/>
  <path d="M127.46,71.1v51.42h39.48l-8.25,25.96h-31.23v131.05c0,1.62,1.1,6.1,1.64,7.85,5.54,17.84,22.72.5,30.34-6.1v38.44c-13.77,6.11-28.72,7.97-43.48,4.25-20.01-5.03-24.75-21.3-26-39.93l.05-133.85-.78-1.72h-21.24c20.82-23.21,40.94-48.06,52.47-77.38h7Z"/>
  <path d="M582.71,320.73c6.36-10.03,9.42-20.79,10.02-32.68V86.31c-.86-8.63-5.7-15.97-10.02-23.19l47.22-19.48.24,241.42c.69,12.72,3.12,25.1,10.51,35.68h-57.97Z"/>
  <path d="M216.91,122.52l6.75,34.95,4.31-11.16c8.97-20.49,23.76-28.23,46.09-25.72,1.32.15,10.7,1.69,10.84,2.23l-9.54,43.14c-9.19-5.44-20.03-10.48-30.98-7.74-14.65,3.66-18.4,18.71-19.51,31.94,1.71,32-2.67,66.67,1.08,98.31,1.32,11.16,4.42,22.25,9.43,32.26h-57.97c1.32-4.38,3.5-8.49,4.86-12.87,2.55-8.22,3.76-16.77,4.63-25.33-1.43-40.89,4.04-86.4-.5-126.8-1.29-11.49-4.49-22.82-9.49-33.2h39.98Z"/>
</svg>